<?xml version="1.0" encoding="UTF-8"?>
<svg xmlns="http://www.w3.org/2000/svg" version="1.1" width="500" height="500" viewBox="0 0 500 500"><g transform="scale(16.129)"><g transform="translate(1,1)"><g><g transform="translate(3.5,3.5)"><path fill-rule="evenodd" d="M-3.5 0C-3.5 3.5 -3.5 3.5 0 3.5C3.5 3.5 3.5 3.5 3.5 0C3.5 -3.5 3.5 -3.5 0 -3.5C-3.5 -3.5 -3.5 -3.5 -3.5 0ZM-2.5 0L-2.5 -1.5A1 1 0 0 1 -1.5 -2.5L1.5 -2.5A1 1 0 0 1 2.5 -1.5L2.5 1.5A1 1 0 0 1 1.5 2.5L-1.5 2.5A1 1 0 0 1 -2.5 1.5Z" fill="#ffffff"/><path fill-rule="evenodd" d="M-1.5 0C-1.5 1.5 -1.5 1.5 0 1.5C1.5 1.5 1.5 1.5 1.5 0C1.5 -1.5 1.5 -1.5 0 -1.5C-1.5 -1.5 -1.5 -1.5 -1.5 0Z" fill="#ffffff"/></g></g><g><g transform="translate(25.5,3.5)"><g transform="rotate(90)"><path fill-rule="evenodd" d="M-3.5 0C-3.5 3.5 -3.5 3.5 0 3.5C3.5 3.5 3.5 3.5 3.5 0C3.5 -3.5 3.5 -3.5 0 -3.5C-3.5 -3.5 -3.5 -3.5 -3.5 0ZM-2.5 0L-2.5 -1.5A1 1 0 0 1 -1.5 -2.5L1.5 -2.5A1 1 0 0 1 2.5 -1.5L2.5 1.5A1 1 0 0 1 1.5 2.5L-1.5 2.5A1 1 0 0 1 -2.5 1.5Z" fill="#ffffff"/><path fill-rule="evenodd" d="M-1.5 0C-1.5 1.5 -1.5 1.5 0 1.5C1.5 1.5 1.5 1.5 1.5 0C1.5 -1.5 1.5 -1.5 0 -1.5C-1.5 -1.5 -1.5 -1.5 -1.5 0Z" fill="#ffffff"/></g></g></g><g><g transform="translate(3.5,25.5)"><g transform="rotate(-90)"><path fill-rule="evenodd" d="M-3.5 0C-3.5 3.5 -3.5 3.5 0 3.5C3.5 3.5 3.5 3.5 3.5 0C3.5 -3.5 3.5 -3.5 0 -3.5C-3.5 -3.5 -3.5 -3.5 -3.5 0ZM-2.5 0L-2.5 -1.5A1 1 0 0 1 -1.5 -2.5L1.5 -2.5A1 1 0 0 1 2.5 -1.5L2.5 1.5A1 1 0 0 1 1.5 2.5L-1.5 2.5A1 1 0 0 1 -2.5 1.5Z" fill="#ffffff"/><path fill-rule="evenodd" d="M-1.5 0C-1.5 1.5 -1.5 1.5 0 1.5C1.5 1.5 1.5 1.5 1.5 0C1.5 -1.5 1.5 -1.5 0 -1.5C-1.5 -1.5 -1.5 -1.5 -1.5 0Z" fill="#ffffff"/></g></g></g><path fill-rule="evenodd" d="M8.95 0.5A0.45 0.45 0 0 1 8.5 0.95A0.45 0.45 0 0 1 8.05 0.5A0.45 0.45 0 0 1 8.5 0.05A0.45 0.45 0 0 1 8.95 0.5ZM10.95 0.5A0.45 0.45 0 0 1 10.5 0.95A0.45 0.45 0 0 1 10.05 0.5A0.45 0.45 0 0 1 10.5 0.05A0.45 0.45 0 0 1 10.95 0.5ZM11.95 0.5A0.45 0.45 0 0 1 11.5 0.95A0.45 0.45 0 0 1 11.05 0.5A0.45 0.45 0 0 1 11.5 0.05A0.45 0.45 0 0 1 11.95 0.5ZM13.95 0.5A0.45 0.45 0 0 1 13.5 0.95A0.45 0.45 0 0 1 13.05 0.5A0.45 0.45 0 0 1 13.5 0.05A0.45 0.45 0 0 1 13.95 0.5ZM14.95 0.5A0.45 0.45 0 0 1 14.5 0.95A0.45 0.45 0 0 1 14.05 0.5A0.45 0.45 0 0 1 14.5 0.05A0.45 0.45 0 0 1 14.95 0.5ZM15.95 0.5A0.45 0.45 0 0 1 15.5 0.95A0.45 0.45 0 0 1 15.05 0.5A0.45 0.45 0 0 1 15.5 0.05A0.45 0.45 0 0 1 15.95 0.5ZM17.95 0.5A0.45 0.45 0 0 1 17.5 0.95A0.45 0.45 0 0 1 17.05 0.5A0.45 0.45 0 0 1 17.5 0.05A0.45 0.45 0 0 1 17.95 0.5ZM20.95 0.5A0.45 0.45 0 0 1 20.5 0.95A0.45 0.45 0 0 1 20.05 0.5A0.45 0.45 0 0 1 20.5 0.05A0.45 0.45 0 0 1 20.95 0.5ZM8.95 1.5A0.45 0.45 0 0 1 8.5 1.95A0.45 0.45 0 0 1 8.05 1.5A0.45 0.45 0 0 1 8.5 1.05A0.45 0.45 0 0 1 8.95 1.5ZM9.95 1.5A0.45 0.45 0 0 1 9.5 1.95A0.45 0.45 0 0 1 9.05 1.5A0.45 0.45 0 0 1 9.5 1.05A0.45 0.45 0 0 1 9.95 1.5ZM11.95 1.5A0.45 0.45 0 0 1 11.5 1.95A0.45 0.45 0 0 1 11.05 1.5A0.45 0.45 0 0 1 11.5 1.05A0.45 0.45 0 0 1 11.95 1.5ZM12.95 1.5A0.45 0.45 0 0 1 12.5 1.95A0.45 0.45 0 0 1 12.05 1.5A0.45 0.45 0 0 1 12.5 1.05A0.45 0.45 0 0 1 12.95 1.5ZM14.95 1.5A0.45 0.45 0 0 1 14.5 1.95A0.45 0.45 0 0 1 14.05 1.5A0.45 0.45 0 0 1 14.5 1.05A0.45 0.45 0 0 1 14.95 1.5ZM17.95 1.5A0.45 0.45 0 0 1 17.5 1.95A0.45 0.45 0 0 1 17.05 1.5A0.45 0.45 0 0 1 17.5 1.05A0.45 0.45 0 0 1 17.95 1.5ZM18.95 1.5A0.45 0.45 0 0 1 18.5 1.95A0.45 0.45 0 0 1 18.05 1.5A0.45 0.45 0 0 1 18.5 1.05A0.45 0.45 0 0 1 18.95 1.5ZM20.95 1.5A0.45 0.45 0 0 1 20.5 1.95A0.45 0.45 0 0 1 20.05 1.5A0.45 0.45 0 0 1 20.5 1.05A0.45 0.45 0 0 1 20.95 1.5ZM8.95 2.5A0.45 0.45 0 0 1 8.5 2.95A0.45 0.45 0 0 1 8.05 2.5A0.45 0.45 0 0 1 8.5 2.05A0.45 0.45 0 0 1 8.95 2.5ZM9.95 2.5A0.45 0.45 0 0 1 9.5 2.95A0.45 0.45 0 0 1 9.05 2.5A0.45 0.45 0 0 1 9.5 2.05A0.45 0.45 0 0 1 9.95 2.5ZM11.95 2.5A0.45 0.45 0 0 1 11.5 2.95A0.45 0.45 0 0 1 11.05 2.5A0.45 0.45 0 0 1 11.5 2.05A0.45 0.45 0 0 1 11.95 2.5ZM12.95 2.5A0.45 0.45 0 0 1 12.5 2.95A0.45 0.45 0 0 1 12.05 2.5A0.45 0.45 0 0 1 12.5 2.05A0.45 0.45 0 0 1 12.95 2.5ZM13.95 2.5A0.45 0.45 0 0 1 13.5 2.95A0.45 0.45 0 0 1 13.05 2.5A0.45 0.45 0 0 1 13.5 2.05A0.45 0.45 0 0 1 13.95 2.5ZM14.95 2.5A0.45 0.45 0 0 1 14.5 2.95A0.45 0.45 0 0 1 14.05 2.5A0.45 0.45 0 0 1 14.5 2.05A0.45 0.45 0 0 1 14.95 2.5ZM17.95 2.5A0.45 0.45 0 0 1 17.5 2.95A0.45 0.45 0 0 1 17.05 2.5A0.45 0.45 0 0 1 17.5 2.05A0.45 0.45 0 0 1 17.95 2.5ZM18.95 2.5A0.45 0.45 0 0 1 18.5 2.95A0.45 0.45 0 0 1 18.05 2.5A0.45 0.45 0 0 1 18.5 2.05A0.45 0.45 0 0 1 18.95 2.5ZM20.95 2.5A0.45 0.45 0 0 1 20.5 2.95A0.45 0.45 0 0 1 20.05 2.5A0.45 0.45 0 0 1 20.5 2.05A0.45 0.45 0 0 1 20.95 2.5ZM9.95 3.5A0.45 0.45 0 0 1 9.5 3.95A0.45 0.45 0 0 1 9.05 3.5A0.45 0.45 0 0 1 9.5 3.05A0.45 0.45 0 0 1 9.95 3.5ZM11.95 3.5A0.45 0.45 0 0 1 11.5 3.95A0.45 0.45 0 0 1 11.05 3.5A0.45 0.45 0 0 1 11.5 3.05A0.45 0.45 0 0 1 11.95 3.5ZM12.95 3.5A0.45 0.45 0 0 1 12.5 3.95A0.45 0.45 0 0 1 12.05 3.5A0.45 0.45 0 0 1 12.5 3.05A0.45 0.45 0 0 1 12.95 3.5ZM16.95 3.5A0.45 0.45 0 0 1 16.5 3.95A0.45 0.45 0 0 1 16.05 3.5A0.45 0.45 0 0 1 16.5 3.05A0.45 0.45 0 0 1 16.95 3.5ZM17.95 3.5A0.45 0.45 0 0 1 17.5 3.95A0.45 0.45 0 0 1 17.05 3.5A0.45 0.45 0 0 1 17.5 3.05A0.45 0.45 0 0 1 17.95 3.5ZM8.95 4.5A0.45 0.45 0 0 1 8.5 4.95A0.45 0.45 0 0 1 8.05 4.5A0.45 0.45 0 0 1 8.5 4.05A0.45 0.45 0 0 1 8.95 4.5ZM9.95 4.5A0.45 0.45 0 0 1 9.5 4.95A0.45 0.45 0 0 1 9.05 4.5A0.45 0.45 0 0 1 9.5 4.05A0.45 0.45 0 0 1 9.95 4.5ZM10.95 4.5A0.45 0.45 0 0 1 10.5 4.95A0.45 0.45 0 0 1 10.05 4.5A0.45 0.45 0 0 1 10.5 4.05A0.45 0.45 0 0 1 10.95 4.5ZM11.95 4.5A0.45 0.45 0 0 1 11.5 4.95A0.45 0.45 0 0 1 11.05 4.5A0.45 0.45 0 0 1 11.5 4.05A0.45 0.45 0 0 1 11.95 4.5ZM12.95 4.5A0.45 0.45 0 0 1 12.5 4.95A0.45 0.45 0 0 1 12.05 4.5A0.45 0.45 0 0 1 12.5 4.05A0.45 0.45 0 0 1 12.95 4.5ZM16.95 4.5A0.45 0.45 0 0 1 16.5 4.95A0.45 0.45 0 0 1 16.05 4.5A0.45 0.45 0 0 1 16.5 4.05A0.45 0.45 0 0 1 16.95 4.5ZM17.95 4.5A0.45 0.45 0 0 1 17.5 4.95A0.45 0.45 0 0 1 17.05 4.5A0.45 0.45 0 0 1 17.5 4.05A0.45 0.45 0 0 1 17.95 4.5ZM19.95 4.5A0.45 0.45 0 0 1 19.5 4.95A0.45 0.45 0 0 1 19.05 4.5A0.45 0.45 0 0 1 19.5 4.05A0.45 0.45 0 0 1 19.95 4.5ZM20.95 4.5A0.45 0.45 0 0 1 20.5 4.95A0.45 0.45 0 0 1 20.05 4.5A0.45 0.45 0 0 1 20.5 4.05A0.45 0.45 0 0 1 20.95 4.5ZM12.95 5.5A0.45 0.45 0 0 1 12.5 5.95A0.45 0.45 0 0 1 12.05 5.5A0.45 0.45 0 0 1 12.5 5.05A0.45 0.45 0 0 1 12.95 5.5ZM13.95 5.5A0.45 0.45 0 0 1 13.5 5.95A0.45 0.45 0 0 1 13.05 5.5A0.45 0.45 0 0 1 13.5 5.05A0.45 0.45 0 0 1 13.95 5.5ZM16.95 5.5A0.45 0.45 0 0 1 16.5 5.95A0.45 0.45 0 0 1 16.05 5.5A0.45 0.45 0 0 1 16.5 5.05A0.45 0.45 0 0 1 16.95 5.5ZM8.95 6.5A0.45 0.45 0 0 1 8.5 6.95A0.45 0.45 0 0 1 8.05 6.5A0.45 0.45 0 0 1 8.5 6.05A0.45 0.45 0 0 1 8.95 6.5ZM10.95 6.5A0.45 0.45 0 0 1 10.5 6.95A0.45 0.45 0 0 1 10.05 6.5A0.45 0.45 0 0 1 10.5 6.05A0.45 0.45 0 0 1 10.95 6.5ZM12.95 6.5A0.45 0.45 0 0 1 12.5 6.95A0.45 0.45 0 0 1 12.05 6.5A0.45 0.45 0 0 1 12.5 6.05A0.45 0.45 0 0 1 12.95 6.5ZM14.95 6.5A0.45 0.45 0 0 1 14.5 6.95A0.45 0.45 0 0 1 14.05 6.5A0.45 0.45 0 0 1 14.5 6.05A0.45 0.45 0 0 1 14.95 6.5ZM16.95 6.5A0.45 0.45 0 0 1 16.5 6.95A0.45 0.45 0 0 1 16.05 6.5A0.45 0.45 0 0 1 16.5 6.05A0.45 0.45 0 0 1 16.95 6.5ZM18.95 6.5A0.45 0.45 0 0 1 18.5 6.95A0.45 0.45 0 0 1 18.05 6.5A0.45 0.45 0 0 1 18.5 6.05A0.45 0.45 0 0 1 18.95 6.5ZM20.95 6.5A0.45 0.45 0 0 1 20.5 6.95A0.45 0.45 0 0 1 20.05 6.5A0.45 0.45 0 0 1 20.5 6.05A0.45 0.45 0 0 1 20.95 6.5ZM9.95 7.5A0.45 0.45 0 0 1 9.5 7.95A0.45 0.45 0 0 1 9.05 7.5A0.45 0.45 0 0 1 9.5 7.05A0.45 0.45 0 0 1 9.95 7.5ZM13.95 7.5A0.45 0.45 0 0 1 13.5 7.95A0.45 0.45 0 0 1 13.05 7.5A0.45 0.45 0 0 1 13.5 7.05A0.45 0.45 0 0 1 13.95 7.5ZM15.95 7.5A0.45 0.45 0 0 1 15.5 7.95A0.45 0.45 0 0 1 15.05 7.5A0.45 0.45 0 0 1 15.5 7.05A0.45 0.45 0 0 1 15.95 7.5ZM16.95 7.5A0.45 0.45 0 0 1 16.5 7.95A0.45 0.45 0 0 1 16.05 7.5A0.45 0.45 0 0 1 16.5 7.05A0.45 0.45 0 0 1 16.95 7.5ZM17.95 7.5A0.45 0.45 0 0 1 17.5 7.95A0.45 0.45 0 0 1 17.05 7.5A0.45 0.45 0 0 1 17.5 7.05A0.45 0.45 0 0 1 17.95 7.5ZM18.95 7.5A0.45 0.45 0 0 1 18.5 7.95A0.45 0.45 0 0 1 18.05 7.5A0.45 0.45 0 0 1 18.5 7.05A0.45 0.45 0 0 1 18.95 7.5ZM0.95 8.5A0.45 0.45 0 0 1 0.5 8.95A0.45 0.45 0 0 1 0.05 8.5A0.45 0.45 0 0 1 0.5 8.05A0.45 0.45 0 0 1 0.95 8.5ZM3.95 8.5A0.45 0.45 0 0 1 3.5 8.95A0.45 0.45 0 0 1 3.05 8.5A0.45 0.45 0 0 1 3.5 8.05A0.45 0.45 0 0 1 3.95 8.5ZM4.95 8.5A0.45 0.45 0 0 1 4.5 8.95A0.45 0.45 0 0 1 4.05 8.5A0.45 0.45 0 0 1 4.5 8.05A0.45 0.45 0 0 1 4.95 8.5ZM5.95 8.5A0.45 0.45 0 0 1 5.5 8.95A0.45 0.45 0 0 1 5.05 8.5A0.45 0.45 0 0 1 5.5 8.05A0.45 0.45 0 0 1 5.95 8.5ZM6.95 8.5A0.45 0.45 0 0 1 6.5 8.95A0.45 0.45 0 0 1 6.05 8.5A0.45 0.45 0 0 1 6.5 8.05A0.45 0.45 0 0 1 6.95 8.5ZM7.95 8.5A0.45 0.45 0 0 1 7.5 8.95A0.45 0.45 0 0 1 7.05 8.5A0.45 0.45 0 0 1 7.5 8.05A0.45 0.45 0 0 1 7.95 8.5ZM8.95 8.5A0.45 0.45 0 0 1 8.5 8.95A0.45 0.45 0 0 1 8.05 8.5A0.45 0.45 0 0 1 8.5 8.05A0.45 0.45 0 0 1 8.95 8.5ZM9.95 8.5A0.45 0.45 0 0 1 9.5 8.95A0.45 0.45 0 0 1 9.05 8.5A0.45 0.45 0 0 1 9.5 8.05A0.45 0.45 0 0 1 9.95 8.5ZM10.95 8.5A0.45 0.45 0 0 1 10.5 8.95A0.45 0.45 0 0 1 10.05 8.5A0.45 0.45 0 0 1 10.5 8.05A0.45 0.45 0 0 1 10.95 8.5ZM11.95 8.5A0.45 0.45 0 0 1 11.5 8.95A0.45 0.45 0 0 1 11.05 8.5A0.45 0.45 0 0 1 11.5 8.05A0.45 0.45 0 0 1 11.95 8.5ZM13.95 8.5A0.45 0.45 0 0 1 13.5 8.95A0.45 0.45 0 0 1 13.05 8.5A0.45 0.45 0 0 1 13.5 8.05A0.45 0.45 0 0 1 13.95 8.5ZM15.95 8.5A0.45 0.45 0 0 1 15.5 8.95A0.45 0.45 0 0 1 15.05 8.5A0.45 0.45 0 0 1 15.5 8.05A0.45 0.45 0 0 1 15.95 8.5ZM16.95 8.5A0.45 0.45 0 0 1 16.5 8.95A0.45 0.45 0 0 1 16.05 8.5A0.45 0.45 0 0 1 16.5 8.05A0.45 0.45 0 0 1 16.95 8.5ZM18.95 8.5A0.45 0.45 0 0 1 18.5 8.95A0.45 0.45 0 0 1 18.05 8.5A0.45 0.45 0 0 1 18.5 8.05A0.45 0.45 0 0 1 18.95 8.5ZM19.95 8.5A0.45 0.45 0 0 1 19.5 8.95A0.45 0.45 0 0 1 19.05 8.5A0.45 0.45 0 0 1 19.5 8.05A0.45 0.45 0 0 1 19.95 8.5ZM20.95 8.5A0.45 0.45 0 0 1 20.5 8.95A0.45 0.45 0 0 1 20.05 8.5A0.45 0.45 0 0 1 20.5 8.05A0.45 0.45 0 0 1 20.95 8.5ZM21.95 8.5A0.45 0.45 0 0 1 21.5 8.95A0.45 0.45 0 0 1 21.05 8.5A0.45 0.45 0 0 1 21.5 8.05A0.45 0.45 0 0 1 21.95 8.5ZM24.95 8.5A0.45 0.45 0 0 1 24.5 8.95A0.45 0.45 0 0 1 24.05 8.5A0.45 0.45 0 0 1 24.5 8.05A0.45 0.45 0 0 1 24.95 8.5ZM26.95 8.5A0.45 0.45 0 0 1 26.5 8.95A0.45 0.45 0 0 1 26.05 8.5A0.45 0.45 0 0 1 26.5 8.05A0.45 0.45 0 0 1 26.95 8.5ZM27.95 8.5A0.45 0.45 0 0 1 27.5 8.95A0.45 0.45 0 0 1 27.05 8.5A0.45 0.45 0 0 1 27.5 8.05A0.45 0.45 0 0 1 27.95 8.5ZM28.95 8.5A0.45 0.45 0 0 1 28.5 8.95A0.45 0.45 0 0 1 28.05 8.5A0.45 0.45 0 0 1 28.5 8.05A0.45 0.45 0 0 1 28.95 8.5ZM1.95 9.5A0.45 0.45 0 0 1 1.5 9.95A0.45 0.45 0 0 1 1.05 9.5A0.45 0.45 0 0 1 1.5 9.05A0.45 0.45 0 0 1 1.95 9.5ZM4.95 9.5A0.45 0.45 0 0 1 4.5 9.95A0.45 0.45 0 0 1 4.05 9.5A0.45 0.45 0 0 1 4.5 9.05A0.45 0.45 0 0 1 4.95 9.5ZM5.95 9.5A0.45 0.45 0 0 1 5.5 9.95A0.45 0.45 0 0 1 5.05 9.5A0.45 0.45 0 0 1 5.5 9.05A0.45 0.45 0 0 1 5.95 9.5ZM7.95 9.5A0.45 0.45 0 0 1 7.5 9.95A0.45 0.45 0 0 1 7.05 9.5A0.45 0.45 0 0 1 7.5 9.05A0.45 0.45 0 0 1 7.95 9.5ZM10.95 9.5A0.45 0.45 0 0 1 10.5 9.95A0.45 0.45 0 0 1 10.05 9.5A0.45 0.45 0 0 1 10.5 9.05A0.45 0.45 0 0 1 10.95 9.5ZM14.95 9.5A0.45 0.45 0 0 1 14.5 9.95A0.45 0.45 0 0 1 14.05 9.5A0.45 0.45 0 0 1 14.5 9.05A0.45 0.45 0 0 1 14.95 9.5ZM20.95 9.5A0.45 0.45 0 0 1 20.5 9.95A0.45 0.45 0 0 1 20.05 9.5A0.45 0.45 0 0 1 20.5 9.05A0.45 0.45 0 0 1 20.95 9.5ZM21.95 9.5A0.45 0.45 0 0 1 21.5 9.95A0.45 0.45 0 0 1 21.05 9.5A0.45 0.45 0 0 1 21.5 9.05A0.45 0.45 0 0 1 21.95 9.5ZM22.95 9.5A0.45 0.45 0 0 1 22.5 9.95A0.45 0.45 0 0 1 22.05 9.5A0.45 0.45 0 0 1 22.5 9.05A0.45 0.45 0 0 1 22.95 9.5ZM23.95 9.5A0.45 0.45 0 0 1 23.5 9.95A0.45 0.45 0 0 1 23.05 9.5A0.45 0.45 0 0 1 23.5 9.05A0.45 0.45 0 0 1 23.95 9.5ZM25.95 9.5A0.45 0.45 0 0 1 25.5 9.95A0.45 0.45 0 0 1 25.05 9.5A0.45 0.45 0 0 1 25.5 9.05A0.45 0.45 0 0 1 25.95 9.5ZM26.95 9.5A0.45 0.45 0 0 1 26.5 9.95A0.45 0.45 0 0 1 26.05 9.5A0.45 0.45 0 0 1 26.5 9.05A0.45 0.45 0 0 1 26.95 9.5ZM28.95 9.5A0.45 0.45 0 0 1 28.5 9.95A0.45 0.45 0 0 1 28.05 9.5A0.45 0.45 0 0 1 28.5 9.05A0.45 0.45 0 0 1 28.95 9.5ZM1.95 10.5A0.45 0.45 0 0 1 1.5 10.95A0.45 0.45 0 0 1 1.05 10.5A0.45 0.45 0 0 1 1.5 10.05A0.45 0.45 0 0 1 1.95 10.5ZM2.95 10.5A0.45 0.45 0 0 1 2.5 10.95A0.45 0.45 0 0 1 2.05 10.5A0.45 0.45 0 0 1 2.5 10.05A0.45 0.45 0 0 1 2.95 10.5ZM4.95 10.5A0.45 0.45 0 0 1 4.5 10.95A0.45 0.45 0 0 1 4.05 10.5A0.45 0.45 0 0 1 4.5 10.05A0.45 0.45 0 0 1 4.95 10.5ZM5.95 10.5A0.45 0.45 0 0 1 5.5 10.95A0.45 0.45 0 0 1 5.05 10.5A0.45 0.45 0 0 1 5.5 10.05A0.45 0.45 0 0 1 5.95 10.5ZM6.95 10.5A0.45 0.45 0 0 1 6.5 10.95A0.45 0.45 0 0 1 6.05 10.5A0.45 0.45 0 0 1 6.5 10.05A0.45 0.45 0 0 1 6.95 10.5ZM10.95 10.5A0.45 0.45 0 0 1 10.5 10.95A0.45 0.45 0 0 1 10.05 10.5A0.45 0.45 0 0 1 10.5 10.05A0.45 0.45 0 0 1 10.95 10.5ZM12.95 10.5A0.45 0.45 0 0 1 12.5 10.95A0.45 0.45 0 0 1 12.05 10.5A0.45 0.45 0 0 1 12.5 10.05A0.45 0.45 0 0 1 12.95 10.5ZM14.95 10.5A0.45 0.45 0 0 1 14.5 10.95A0.45 0.45 0 0 1 14.05 10.5A0.45 0.45 0 0 1 14.5 10.05A0.45 0.45 0 0 1 14.95 10.5ZM15.95 10.5A0.45 0.45 0 0 1 15.5 10.95A0.45 0.45 0 0 1 15.05 10.5A0.45 0.45 0 0 1 15.5 10.05A0.45 0.45 0 0 1 15.95 10.5ZM18.95 10.5A0.45 0.45 0 0 1 18.5 10.95A0.45 0.45 0 0 1 18.05 10.5A0.45 0.45 0 0 1 18.5 10.05A0.45 0.45 0 0 1 18.95 10.5ZM19.95 10.5A0.45 0.45 0 0 1 19.5 10.95A0.45 0.45 0 0 1 19.05 10.5A0.45 0.45 0 0 1 19.5 10.05A0.45 0.45 0 0 1 19.95 10.5ZM20.95 10.5A0.45 0.45 0 0 1 20.5 10.95A0.45 0.45 0 0 1 20.05 10.5A0.45 0.45 0 0 1 20.5 10.05A0.45 0.45 0 0 1 20.95 10.5ZM23.95 10.5A0.45 0.45 0 0 1 23.5 10.95A0.45 0.45 0 0 1 23.05 10.5A0.45 0.45 0 0 1 23.5 10.05A0.45 0.45 0 0 1 23.95 10.5ZM25.95 10.5A0.45 0.45 0 0 1 25.5 10.95A0.45 0.45 0 0 1 25.05 10.5A0.45 0.45 0 0 1 25.5 10.05A0.45 0.45 0 0 1 25.95 10.5ZM0.95 11.5A0.45 0.45 0 0 1 0.5 11.95A0.45 0.45 0 0 1 0.05 11.5A0.45 0.45 0 0 1 0.5 11.05A0.45 0.45 0 0 1 0.95 11.5ZM2.95 11.5A0.45 0.45 0 0 1 2.5 11.95A0.45 0.45 0 0 1 2.05 11.5A0.45 0.45 0 0 1 2.5 11.05A0.45 0.45 0 0 1 2.95 11.5ZM3.95 11.5A0.45 0.45 0 0 1 3.5 11.95A0.45 0.45 0 0 1 3.05 11.5A0.45 0.45 0 0 1 3.5 11.05A0.45 0.45 0 0 1 3.95 11.5ZM4.95 11.5A0.45 0.45 0 0 1 4.5 11.95A0.45 0.45 0 0 1 4.05 11.5A0.45 0.45 0 0 1 4.5 11.05A0.45 0.45 0 0 1 4.95 11.5ZM7.95 11.5A0.45 0.45 0 0 1 7.5 11.95A0.45 0.45 0 0 1 7.05 11.5A0.45 0.45 0 0 1 7.5 11.05A0.45 0.45 0 0 1 7.95 11.5ZM8.95 11.5A0.45 0.45 0 0 1 8.5 11.95A0.45 0.45 0 0 1 8.05 11.5A0.45 0.45 0 0 1 8.5 11.05A0.45 0.45 0 0 1 8.95 11.5ZM11.95 11.5A0.45 0.45 0 0 1 11.5 11.95A0.45 0.45 0 0 1 11.05 11.5A0.45 0.45 0 0 1 11.5 11.05A0.45 0.45 0 0 1 11.95 11.5ZM12.95 11.5A0.45 0.45 0 0 1 12.5 11.95A0.45 0.45 0 0 1 12.05 11.5A0.45 0.45 0 0 1 12.5 11.05A0.45 0.45 0 0 1 12.95 11.5ZM15.95 11.5A0.45 0.45 0 0 1 15.5 11.95A0.45 0.45 0 0 1 15.05 11.5A0.45 0.45 0 0 1 15.5 11.05A0.45 0.45 0 0 1 15.95 11.5ZM18.95 11.5A0.45 0.45 0 0 1 18.5 11.95A0.45 0.45 0 0 1 18.05 11.5A0.45 0.45 0 0 1 18.5 11.05A0.45 0.45 0 0 1 18.95 11.5ZM19.95 11.5A0.45 0.45 0 0 1 19.5 11.95A0.45 0.45 0 0 1 19.05 11.5A0.45 0.45 0 0 1 19.5 11.05A0.45 0.45 0 0 1 19.95 11.5ZM20.95 11.5A0.45 0.45 0 0 1 20.5 11.95A0.45 0.45 0 0 1 20.05 11.5A0.45 0.45 0 0 1 20.5 11.05A0.45 0.45 0 0 1 20.95 11.5ZM23.95 11.5A0.45 0.45 0 0 1 23.5 11.95A0.45 0.45 0 0 1 23.05 11.5A0.45 0.45 0 0 1 23.5 11.05A0.45 0.45 0 0 1 23.95 11.5ZM24.95 11.5A0.45 0.45 0 0 1 24.5 11.95A0.45 0.45 0 0 1 24.05 11.5A0.45 0.45 0 0 1 24.5 11.05A0.45 0.45 0 0 1 24.95 11.5ZM25.95 11.5A0.45 0.45 0 0 1 25.5 11.95A0.45 0.45 0 0 1 25.05 11.5A0.45 0.45 0 0 1 25.5 11.05A0.45 0.45 0 0 1 25.95 11.5ZM27.95 11.5A0.45 0.45 0 0 1 27.5 11.95A0.45 0.45 0 0 1 27.05 11.5A0.45 0.45 0 0 1 27.5 11.05A0.45 0.45 0 0 1 27.95 11.5ZM0.95 12.5A0.45 0.45 0 0 1 0.5 12.95A0.45 0.45 0 0 1 0.05 12.5A0.45 0.45 0 0 1 0.5 12.05A0.45 0.45 0 0 1 0.95 12.5ZM4.95 12.5A0.45 0.45 0 0 1 4.5 12.95A0.45 0.45 0 0 1 4.05 12.5A0.45 0.45 0 0 1 4.5 12.05A0.45 0.45 0 0 1 4.95 12.5ZM6.95 12.5A0.45 0.45 0 0 1 6.5 12.95A0.45 0.45 0 0 1 6.05 12.5A0.45 0.45 0 0 1 6.5 12.05A0.45 0.45 0 0 1 6.95 12.5ZM7.95 12.5A0.45 0.45 0 0 1 7.5 12.95A0.45 0.45 0 0 1 7.05 12.5A0.45 0.45 0 0 1 7.5 12.05A0.45 0.45 0 0 1 7.95 12.5ZM8.95 12.5A0.45 0.45 0 0 1 8.5 12.95A0.45 0.45 0 0 1 8.05 12.5A0.45 0.45 0 0 1 8.5 12.05A0.45 0.45 0 0 1 8.95 12.5ZM10.95 12.5A0.45 0.45 0 0 1 10.5 12.95A0.45 0.45 0 0 1 10.05 12.5A0.45 0.45 0 0 1 10.5 12.05A0.45 0.45 0 0 1 10.95 12.5ZM13.95 12.5A0.45 0.45 0 0 1 13.5 12.95A0.45 0.45 0 0 1 13.05 12.5A0.45 0.45 0 0 1 13.5 12.05A0.45 0.45 0 0 1 13.95 12.5ZM14.95 12.5A0.45 0.45 0 0 1 14.5 12.95A0.45 0.45 0 0 1 14.05 12.5A0.45 0.45 0 0 1 14.5 12.05A0.45 0.45 0 0 1 14.95 12.5ZM15.95 12.5A0.45 0.45 0 0 1 15.5 12.95A0.45 0.45 0 0 1 15.05 12.5A0.45 0.45 0 0 1 15.5 12.05A0.45 0.45 0 0 1 15.95 12.5ZM16.95 12.5A0.45 0.45 0 0 1 16.5 12.95A0.45 0.45 0 0 1 16.05 12.5A0.45 0.45 0 0 1 16.5 12.05A0.45 0.45 0 0 1 16.95 12.5ZM19.95 12.5A0.45 0.45 0 0 1 19.5 12.95A0.45 0.45 0 0 1 19.05 12.5A0.45 0.45 0 0 1 19.5 12.05A0.45 0.45 0 0 1 19.95 12.5ZM20.95 12.5A0.45 0.45 0 0 1 20.5 12.95A0.45 0.45 0 0 1 20.05 12.5A0.45 0.45 0 0 1 20.5 12.05A0.45 0.45 0 0 1 20.95 12.5ZM21.95 12.5A0.45 0.45 0 0 1 21.5 12.95A0.45 0.45 0 0 1 21.05 12.5A0.45 0.45 0 0 1 21.5 12.05A0.45 0.45 0 0 1 21.95 12.5ZM22.95 12.5A0.45 0.45 0 0 1 22.5 12.95A0.45 0.45 0 0 1 22.05 12.5A0.45 0.45 0 0 1 22.5 12.05A0.45 0.45 0 0 1 22.95 12.5ZM23.95 12.5A0.45 0.45 0 0 1 23.5 12.95A0.45 0.45 0 0 1 23.05 12.5A0.45 0.45 0 0 1 23.5 12.05A0.45 0.45 0 0 1 23.95 12.5ZM25.95 12.5A0.45 0.45 0 0 1 25.5 12.95A0.45 0.45 0 0 1 25.05 12.5A0.45 0.45 0 0 1 25.5 12.05A0.45 0.45 0 0 1 25.95 12.5ZM26.95 12.5A0.45 0.45 0 0 1 26.5 12.95A0.45 0.45 0 0 1 26.05 12.5A0.45 0.45 0 0 1 26.5 12.05A0.45 0.45 0 0 1 26.95 12.5ZM28.95 12.5A0.45 0.45 0 0 1 28.5 12.95A0.45 0.45 0 0 1 28.05 12.5A0.45 0.45 0 0 1 28.5 12.05A0.45 0.45 0 0 1 28.95 12.5ZM0.95 13.5A0.45 0.45 0 0 1 0.5 13.95A0.45 0.45 0 0 1 0.05 13.5A0.45 0.45 0 0 1 0.5 13.05A0.45 0.45 0 0 1 0.95 13.5ZM1.95 13.5A0.45 0.45 0 0 1 1.5 13.95A0.45 0.45 0 0 1 1.05 13.5A0.45 0.45 0 0 1 1.5 13.05A0.45 0.45 0 0 1 1.95 13.5ZM2.95 13.5A0.45 0.45 0 0 1 2.5 13.95A0.45 0.45 0 0 1 2.05 13.5A0.45 0.45 0 0 1 2.5 13.05A0.45 0.45 0 0 1 2.95 13.5ZM3.95 13.5A0.45 0.45 0 0 1 3.5 13.95A0.45 0.45 0 0 1 3.05 13.5A0.45 0.45 0 0 1 3.5 13.05A0.45 0.45 0 0 1 3.95 13.5ZM4.95 13.5A0.45 0.45 0 0 1 4.5 13.95A0.45 0.45 0 0 1 4.05 13.5A0.45 0.45 0 0 1 4.5 13.05A0.45 0.45 0 0 1 4.95 13.5ZM5.95 13.5A0.45 0.45 0 0 1 5.5 13.95A0.45 0.45 0 0 1 5.05 13.5A0.45 0.45 0 0 1 5.5 13.05A0.45 0.45 0 0 1 5.95 13.5ZM9.95 13.5A0.45 0.45 0 0 1 9.5 13.95A0.45 0.45 0 0 1 9.05 13.5A0.45 0.45 0 0 1 9.5 13.05A0.45 0.45 0 0 1 9.95 13.5ZM12.95 13.5A0.45 0.45 0 0 1 12.5 13.95A0.45 0.45 0 0 1 12.05 13.5A0.45 0.45 0 0 1 12.5 13.05A0.45 0.45 0 0 1 12.95 13.5ZM14.95 13.5A0.45 0.45 0 0 1 14.5 13.95A0.45 0.45 0 0 1 14.05 13.5A0.45 0.45 0 0 1 14.5 13.05A0.45 0.45 0 0 1 14.95 13.5ZM15.95 13.5A0.45 0.45 0 0 1 15.5 13.95A0.45 0.45 0 0 1 15.05 13.5A0.45 0.45 0 0 1 15.5 13.05A0.45 0.45 0 0 1 15.95 13.5ZM19.95 13.5A0.45 0.45 0 0 1 19.5 13.95A0.45 0.45 0 0 1 19.05 13.5A0.45 0.45 0 0 1 19.5 13.05A0.45 0.45 0 0 1 19.95 13.5ZM21.95 13.5A0.45 0.45 0 0 1 21.5 13.95A0.45 0.45 0 0 1 21.05 13.5A0.45 0.45 0 0 1 21.5 13.05A0.45 0.45 0 0 1 21.95 13.5ZM22.95 13.5A0.45 0.45 0 0 1 22.5 13.95A0.45 0.45 0 0 1 22.05 13.5A0.45 0.45 0 0 1 22.5 13.05A0.45 0.45 0 0 1 22.95 13.5ZM24.95 13.5A0.45 0.45 0 0 1 24.5 13.95A0.45 0.45 0 0 1 24.05 13.5A0.45 0.45 0 0 1 24.5 13.05A0.45 0.45 0 0 1 24.95 13.5ZM26.95 13.5A0.45 0.45 0 0 1 26.5 13.95A0.45 0.45 0 0 1 26.05 13.5A0.45 0.45 0 0 1 26.5 13.05A0.45 0.45 0 0 1 26.95 13.5ZM0.95 14.5A0.45 0.45 0 0 1 0.5 14.95A0.45 0.45 0 0 1 0.05 14.5A0.45 0.45 0 0 1 0.5 14.05A0.45 0.45 0 0 1 0.95 14.5ZM1.95 14.5A0.45 0.45 0 0 1 1.5 14.95A0.45 0.45 0 0 1 1.05 14.5A0.45 0.45 0 0 1 1.5 14.05A0.45 0.45 0 0 1 1.95 14.5ZM5.95 14.5A0.45 0.45 0 0 1 5.5 14.95A0.45 0.45 0 0 1 5.05 14.5A0.45 0.45 0 0 1 5.5 14.05A0.45 0.45 0 0 1 5.95 14.5ZM6.95 14.5A0.45 0.45 0 0 1 6.5 14.95A0.45 0.45 0 0 1 6.05 14.5A0.45 0.45 0 0 1 6.5 14.05A0.45 0.45 0 0 1 6.95 14.5ZM7.95 14.5A0.45 0.45 0 0 1 7.5 14.95A0.45 0.45 0 0 1 7.05 14.5A0.45 0.45 0 0 1 7.5 14.05A0.45 0.45 0 0 1 7.95 14.5ZM9.95 14.5A0.45 0.45 0 0 1 9.5 14.95A0.45 0.45 0 0 1 9.05 14.5A0.45 0.45 0 0 1 9.5 14.05A0.45 0.45 0 0 1 9.95 14.5ZM11.95 14.5A0.45 0.45 0 0 1 11.5 14.95A0.45 0.45 0 0 1 11.05 14.5A0.45 0.45 0 0 1 11.5 14.05A0.45 0.45 0 0 1 11.95 14.5ZM12.95 14.5A0.45 0.45 0 0 1 12.5 14.95A0.45 0.45 0 0 1 12.05 14.5A0.45 0.45 0 0 1 12.5 14.05A0.45 0.45 0 0 1 12.95 14.5ZM14.95 14.5A0.45 0.45 0 0 1 14.5 14.95A0.45 0.45 0 0 1 14.05 14.5A0.45 0.45 0 0 1 14.5 14.05A0.45 0.45 0 0 1 14.95 14.5ZM15.95 14.5A0.45 0.45 0 0 1 15.5 14.95A0.45 0.45 0 0 1 15.05 14.5A0.45 0.45 0 0 1 15.5 14.05A0.45 0.45 0 0 1 15.95 14.5ZM17.95 14.5A0.45 0.45 0 0 1 17.5 14.95A0.45 0.45 0 0 1 17.05 14.5A0.45 0.45 0 0 1 17.5 14.05A0.45 0.45 0 0 1 17.95 14.5ZM18.95 14.5A0.45 0.45 0 0 1 18.5 14.95A0.45 0.45 0 0 1 18.05 14.5A0.45 0.45 0 0 1 18.5 14.05A0.45 0.45 0 0 1 18.95 14.5ZM22.95 14.5A0.45 0.45 0 0 1 22.5 14.95A0.45 0.45 0 0 1 22.05 14.5A0.45 0.45 0 0 1 22.5 14.05A0.45 0.45 0 0 1 22.95 14.5ZM23.95 14.5A0.45 0.45 0 0 1 23.5 14.95A0.45 0.45 0 0 1 23.05 14.5A0.45 0.45 0 0 1 23.5 14.05A0.45 0.45 0 0 1 23.95 14.5ZM26.95 14.5A0.45 0.45 0 0 1 26.5 14.95A0.45 0.45 0 0 1 26.05 14.5A0.45 0.45 0 0 1 26.5 14.05A0.45 0.45 0 0 1 26.95 14.5ZM27.95 14.5A0.45 0.45 0 0 1 27.5 14.95A0.45 0.45 0 0 1 27.05 14.5A0.45 0.45 0 0 1 27.5 14.05A0.45 0.45 0 0 1 27.95 14.5ZM3.95 15.5A0.45 0.45 0 0 1 3.5 15.95A0.45 0.45 0 0 1 3.05 15.5A0.45 0.45 0 0 1 3.5 15.05A0.45 0.45 0 0 1 3.95 15.5ZM5.95 15.5A0.45 0.45 0 0 1 5.5 15.95A0.45 0.45 0 0 1 5.05 15.5A0.45 0.45 0 0 1 5.5 15.05A0.45 0.45 0 0 1 5.95 15.5ZM8.95 15.5A0.45 0.45 0 0 1 8.5 15.95A0.45 0.45 0 0 1 8.05 15.5A0.45 0.45 0 0 1 8.5 15.05A0.45 0.45 0 0 1 8.95 15.5ZM9.95 15.5A0.45 0.45 0 0 1 9.5 15.95A0.45 0.45 0 0 1 9.05 15.5A0.45 0.45 0 0 1 9.5 15.05A0.45 0.45 0 0 1 9.95 15.5ZM10.95 15.5A0.45 0.45 0 0 1 10.5 15.95A0.45 0.45 0 0 1 10.05 15.5A0.45 0.45 0 0 1 10.5 15.05A0.45 0.45 0 0 1 10.95 15.5ZM13.95 15.5A0.45 0.45 0 0 1 13.5 15.95A0.45 0.45 0 0 1 13.05 15.5A0.45 0.45 0 0 1 13.5 15.05A0.45 0.45 0 0 1 13.95 15.5ZM14.95 15.5A0.45 0.45 0 0 1 14.5 15.95A0.45 0.45 0 0 1 14.05 15.5A0.45 0.45 0 0 1 14.5 15.05A0.45 0.45 0 0 1 14.95 15.5ZM15.95 15.5A0.45 0.45 0 0 1 15.5 15.95A0.45 0.45 0 0 1 15.05 15.5A0.45 0.45 0 0 1 15.5 15.05A0.45 0.45 0 0 1 15.95 15.5ZM16.95 15.5A0.45 0.45 0 0 1 16.5 15.95A0.45 0.45 0 0 1 16.05 15.5A0.45 0.45 0 0 1 16.5 15.05A0.45 0.45 0 0 1 16.95 15.5ZM19.95 15.5A0.45 0.45 0 0 1 19.5 15.95A0.45 0.45 0 0 1 19.05 15.5A0.45 0.45 0 0 1 19.5 15.05A0.45 0.45 0 0 1 19.95 15.5ZM23.95 15.5A0.45 0.45 0 0 1 23.5 15.95A0.45 0.45 0 0 1 23.05 15.5A0.45 0.45 0 0 1 23.5 15.05A0.45 0.45 0 0 1 23.95 15.5ZM24.95 15.5A0.45 0.45 0 0 1 24.5 15.95A0.45 0.45 0 0 1 24.05 15.5A0.45 0.45 0 0 1 24.5 15.05A0.45 0.45 0 0 1 24.95 15.5ZM26.95 15.5A0.45 0.45 0 0 1 26.5 15.95A0.45 0.45 0 0 1 26.05 15.5A0.45 0.45 0 0 1 26.5 15.05A0.45 0.45 0 0 1 26.95 15.5ZM0.95 16.5A0.45 0.45 0 0 1 0.5 16.95A0.45 0.45 0 0 1 0.05 16.5A0.45 0.45 0 0 1 0.5 16.05A0.45 0.45 0 0 1 0.95 16.5ZM4.95 16.5A0.45 0.45 0 0 1 4.5 16.95A0.45 0.45 0 0 1 4.05 16.5A0.45 0.45 0 0 1 4.5 16.05A0.45 0.45 0 0 1 4.95 16.5ZM6.95 16.5A0.45 0.45 0 0 1 6.5 16.95A0.45 0.45 0 0 1 6.05 16.5A0.45 0.45 0 0 1 6.5 16.05A0.45 0.45 0 0 1 6.95 16.5ZM8.95 16.5A0.45 0.45 0 0 1 8.5 16.95A0.45 0.45 0 0 1 8.05 16.5A0.45 0.45 0 0 1 8.5 16.05A0.45 0.45 0 0 1 8.95 16.5ZM9.95 16.5A0.45 0.45 0 0 1 9.5 16.95A0.45 0.45 0 0 1 9.05 16.5A0.45 0.45 0 0 1 9.5 16.05A0.45 0.45 0 0 1 9.95 16.5ZM11.95 16.5A0.45 0.45 0 0 1 11.5 16.95A0.45 0.45 0 0 1 11.05 16.5A0.45 0.45 0 0 1 11.5 16.05A0.45 0.45 0 0 1 11.95 16.5ZM15.95 16.5A0.45 0.45 0 0 1 15.5 16.95A0.45 0.45 0 0 1 15.05 16.5A0.45 0.45 0 0 1 15.5 16.05A0.45 0.45 0 0 1 15.95 16.5ZM16.95 16.5A0.45 0.45 0 0 1 16.5 16.95A0.45 0.45 0 0 1 16.05 16.5A0.45 0.45 0 0 1 16.5 16.05A0.45 0.45 0 0 1 16.95 16.5ZM22.95 16.5A0.45 0.45 0 0 1 22.5 16.95A0.45 0.45 0 0 1 22.05 16.5A0.45 0.45 0 0 1 22.5 16.05A0.45 0.45 0 0 1 22.95 16.5ZM24.95 16.5A0.45 0.45 0 0 1 24.5 16.95A0.45 0.45 0 0 1 24.05 16.5A0.45 0.45 0 0 1 24.5 16.05A0.45 0.45 0 0 1 24.95 16.5ZM26.95 16.5A0.45 0.45 0 0 1 26.5 16.95A0.45 0.45 0 0 1 26.05 16.5A0.45 0.45 0 0 1 26.5 16.05A0.45 0.45 0 0 1 26.95 16.5ZM0.95 17.5A0.45 0.45 0 0 1 0.5 17.95A0.45 0.45 0 0 1 0.05 17.5A0.45 0.45 0 0 1 0.5 17.05A0.45 0.45 0 0 1 0.95 17.5ZM2.95 17.5A0.45 0.45 0 0 1 2.5 17.95A0.45 0.45 0 0 1 2.05 17.5A0.45 0.45 0 0 1 2.5 17.05A0.45 0.45 0 0 1 2.95 17.5ZM4.95 17.5A0.45 0.45 0 0 1 4.5 17.95A0.45 0.45 0 0 1 4.05 17.5A0.45 0.45 0 0 1 4.5 17.05A0.45 0.45 0 0 1 4.95 17.5ZM5.95 17.5A0.45 0.45 0 0 1 5.5 17.95A0.45 0.45 0 0 1 5.05 17.5A0.45 0.45 0 0 1 5.5 17.05A0.45 0.45 0 0 1 5.95 17.5ZM8.95 17.5A0.45 0.45 0 0 1 8.5 17.95A0.45 0.45 0 0 1 8.05 17.5A0.45 0.45 0 0 1 8.5 17.05A0.45 0.45 0 0 1 8.95 17.5ZM9.95 17.5A0.45 0.45 0 0 1 9.5 17.95A0.45 0.45 0 0 1 9.05 17.5A0.45 0.45 0 0 1 9.5 17.05A0.45 0.45 0 0 1 9.95 17.5ZM10.95 17.5A0.45 0.45 0 0 1 10.5 17.95A0.45 0.45 0 0 1 10.05 17.5A0.45 0.45 0 0 1 10.5 17.05A0.45 0.45 0 0 1 10.95 17.5ZM17.95 17.5A0.45 0.45 0 0 1 17.5 17.95A0.45 0.45 0 0 1 17.05 17.5A0.45 0.45 0 0 1 17.5 17.05A0.45 0.45 0 0 1 17.95 17.5ZM18.95 17.5A0.45 0.45 0 0 1 18.5 17.95A0.45 0.45 0 0 1 18.05 17.5A0.45 0.45 0 0 1 18.5 17.05A0.45 0.45 0 0 1 18.95 17.5ZM19.95 17.5A0.45 0.45 0 0 1 19.5 17.95A0.45 0.45 0 0 1 19.05 17.5A0.45 0.45 0 0 1 19.5 17.05A0.45 0.45 0 0 1 19.95 17.5ZM21.95 17.5A0.45 0.45 0 0 1 21.5 17.95A0.45 0.45 0 0 1 21.05 17.5A0.45 0.45 0 0 1 21.5 17.05A0.45 0.45 0 0 1 21.95 17.5ZM23.95 17.5A0.45 0.45 0 0 1 23.5 17.95A0.45 0.45 0 0 1 23.05 17.5A0.45 0.45 0 0 1 23.5 17.05A0.45 0.45 0 0 1 23.95 17.5ZM24.95 17.5A0.45 0.45 0 0 1 24.5 17.95A0.45 0.45 0 0 1 24.05 17.5A0.45 0.45 0 0 1 24.5 17.05A0.45 0.45 0 0 1 24.95 17.5ZM25.95 17.5A0.45 0.45 0 0 1 25.5 17.95A0.45 0.45 0 0 1 25.05 17.5A0.45 0.45 0 0 1 25.5 17.05A0.45 0.45 0 0 1 25.95 17.5ZM27.95 17.5A0.45 0.45 0 0 1 27.5 17.95A0.45 0.45 0 0 1 27.05 17.5A0.45 0.45 0 0 1 27.5 17.05A0.45 0.45 0 0 1 27.95 17.5ZM28.95 17.5A0.45 0.45 0 0 1 28.5 17.95A0.45 0.45 0 0 1 28.05 17.5A0.45 0.45 0 0 1 28.5 17.05A0.45 0.45 0 0 1 28.95 17.5ZM0.95 18.5A0.45 0.45 0 0 1 0.5 18.95A0.45 0.45 0 0 1 0.05 18.5A0.45 0.45 0 0 1 0.5 18.05A0.45 0.45 0 0 1 0.95 18.5ZM1.95 18.5A0.45 0.45 0 0 1 1.5 18.95A0.45 0.45 0 0 1 1.05 18.5A0.45 0.45 0 0 1 1.5 18.05A0.45 0.45 0 0 1 1.95 18.5ZM2.95 18.5A0.45 0.45 0 0 1 2.5 18.95A0.45 0.45 0 0 1 2.05 18.5A0.45 0.45 0 0 1 2.5 18.05A0.45 0.45 0 0 1 2.95 18.5ZM4.95 18.5A0.45 0.45 0 0 1 4.5 18.95A0.45 0.45 0 0 1 4.05 18.5A0.45 0.45 0 0 1 4.5 18.05A0.45 0.45 0 0 1 4.95 18.5ZM5.95 18.5A0.45 0.45 0 0 1 5.5 18.95A0.45 0.45 0 0 1 5.05 18.5A0.45 0.45 0 0 1 5.5 18.05A0.45 0.45 0 0 1 5.95 18.5ZM6.95 18.5A0.45 0.45 0 0 1 6.5 18.95A0.45 0.45 0 0 1 6.05 18.5A0.45 0.45 0 0 1 6.5 18.05A0.45 0.45 0 0 1 6.95 18.5ZM7.95 18.5A0.45 0.45 0 0 1 7.5 18.95A0.45 0.45 0 0 1 7.05 18.5A0.45 0.45 0 0 1 7.5 18.05A0.45 0.45 0 0 1 7.95 18.5ZM11.95 18.5A0.45 0.45 0 0 1 11.5 18.95A0.45 0.45 0 0 1 11.05 18.5A0.45 0.45 0 0 1 11.5 18.05A0.45 0.45 0 0 1 11.95 18.5ZM12.95 18.5A0.45 0.45 0 0 1 12.5 18.95A0.45 0.45 0 0 1 12.05 18.5A0.45 0.45 0 0 1 12.5 18.05A0.45 0.45 0 0 1 12.95 18.5ZM13.95 18.5A0.45 0.45 0 0 1 13.5 18.95A0.45 0.45 0 0 1 13.05 18.5A0.45 0.45 0 0 1 13.5 18.05A0.45 0.45 0 0 1 13.95 18.5ZM14.95 18.5A0.45 0.45 0 0 1 14.5 18.95A0.45 0.45 0 0 1 14.05 18.5A0.45 0.45 0 0 1 14.5 18.05A0.45 0.45 0 0 1 14.95 18.5ZM15.95 18.5A0.45 0.45 0 0 1 15.5 18.95A0.45 0.45 0 0 1 15.05 18.5A0.45 0.45 0 0 1 15.5 18.05A0.45 0.45 0 0 1 15.95 18.5ZM18.95 18.5A0.45 0.45 0 0 1 18.5 18.95A0.45 0.45 0 0 1 18.05 18.5A0.45 0.45 0 0 1 18.5 18.05A0.45 0.45 0 0 1 18.95 18.5ZM19.95 18.5A0.45 0.45 0 0 1 19.5 18.95A0.45 0.45 0 0 1 19.05 18.5A0.45 0.45 0 0 1 19.5 18.05A0.45 0.45 0 0 1 19.95 18.5ZM20.95 18.5A0.45 0.45 0 0 1 20.5 18.95A0.45 0.45 0 0 1 20.05 18.5A0.45 0.45 0 0 1 20.5 18.05A0.45 0.45 0 0 1 20.95 18.5ZM22.95 18.5A0.45 0.45 0 0 1 22.5 18.95A0.45 0.45 0 0 1 22.05 18.5A0.45 0.45 0 0 1 22.5 18.05A0.45 0.45 0 0 1 22.95 18.5ZM28.95 18.5A0.45 0.45 0 0 1 28.5 18.95A0.45 0.45 0 0 1 28.05 18.5A0.45 0.45 0 0 1 28.5 18.05A0.45 0.45 0 0 1 28.95 18.5ZM0.95 19.5A0.45 0.45 0 0 1 0.5 19.95A0.45 0.45 0 0 1 0.05 19.5A0.45 0.45 0 0 1 0.5 19.05A0.45 0.45 0 0 1 0.95 19.5ZM1.95 19.5A0.45 0.45 0 0 1 1.5 19.95A0.45 0.45 0 0 1 1.05 19.5A0.45 0.45 0 0 1 1.5 19.05A0.45 0.45 0 0 1 1.95 19.5ZM3.95 19.5A0.45 0.45 0 0 1 3.5 19.95A0.45 0.45 0 0 1 3.05 19.5A0.45 0.45 0 0 1 3.5 19.05A0.45 0.45 0 0 1 3.95 19.5ZM5.95 19.5A0.45 0.45 0 0 1 5.5 19.95A0.45 0.45 0 0 1 5.05 19.5A0.45 0.45 0 0 1 5.5 19.05A0.45 0.45 0 0 1 5.95 19.5ZM7.95 19.5A0.45 0.45 0 0 1 7.5 19.95A0.45 0.45 0 0 1 7.05 19.5A0.45 0.45 0 0 1 7.5 19.05A0.45 0.45 0 0 1 7.95 19.5ZM9.95 19.5A0.45 0.45 0 0 1 9.5 19.95A0.45 0.45 0 0 1 9.05 19.5A0.45 0.45 0 0 1 9.5 19.05A0.45 0.45 0 0 1 9.95 19.5ZM11.95 19.5A0.45 0.45 0 0 1 11.5 19.95A0.45 0.45 0 0 1 11.05 19.5A0.45 0.45 0 0 1 11.5 19.05A0.45 0.45 0 0 1 11.95 19.5ZM13.95 19.5A0.45 0.45 0 0 1 13.5 19.95A0.45 0.45 0 0 1 13.05 19.5A0.45 0.45 0 0 1 13.5 19.05A0.45 0.45 0 0 1 13.95 19.5ZM15.95 19.5A0.45 0.45 0 0 1 15.5 19.95A0.45 0.45 0 0 1 15.05 19.5A0.45 0.45 0 0 1 15.5 19.05A0.45 0.45 0 0 1 15.95 19.5ZM22.95 19.5A0.45 0.45 0 0 1 22.5 19.95A0.45 0.45 0 0 1 22.05 19.5A0.45 0.45 0 0 1 22.5 19.05A0.45 0.45 0 0 1 22.95 19.5ZM23.95 19.5A0.45 0.45 0 0 1 23.5 19.95A0.45 0.45 0 0 1 23.05 19.5A0.45 0.45 0 0 1 23.5 19.05A0.45 0.45 0 0 1 23.95 19.5ZM24.95 19.5A0.45 0.45 0 0 1 24.5 19.95A0.45 0.45 0 0 1 24.05 19.5A0.45 0.45 0 0 1 24.5 19.05A0.45 0.45 0 0 1 24.95 19.5ZM25.95 19.5A0.45 0.45 0 0 1 25.5 19.95A0.45 0.45 0 0 1 25.05 19.5A0.45 0.45 0 0 1 25.5 19.05A0.45 0.45 0 0 1 25.95 19.5ZM26.95 19.5A0.45 0.45 0 0 1 26.5 19.95A0.45 0.45 0 0 1 26.05 19.5A0.45 0.45 0 0 1 26.5 19.05A0.45 0.45 0 0 1 26.95 19.5ZM28.95 19.5A0.45 0.45 0 0 1 28.5 19.95A0.45 0.45 0 0 1 28.05 19.5A0.45 0.45 0 0 1 28.5 19.05A0.45 0.45 0 0 1 28.95 19.5ZM0.95 20.5A0.45 0.45 0 0 1 0.5 20.95A0.45 0.45 0 0 1 0.05 20.5A0.45 0.45 0 0 1 0.5 20.05A0.45 0.45 0 0 1 0.95 20.5ZM1.95 20.5A0.45 0.45 0 0 1 1.5 20.95A0.45 0.45 0 0 1 1.05 20.5A0.45 0.45 0 0 1 1.5 20.05A0.45 0.45 0 0 1 1.95 20.5ZM3.95 20.5A0.45 0.45 0 0 1 3.5 20.95A0.45 0.45 0 0 1 3.05 20.5A0.45 0.45 0 0 1 3.5 20.05A0.45 0.45 0 0 1 3.95 20.5ZM4.95 20.5A0.45 0.45 0 0 1 4.5 20.95A0.45 0.45 0 0 1 4.05 20.5A0.45 0.45 0 0 1 4.5 20.05A0.45 0.45 0 0 1 4.95 20.5ZM6.95 20.5A0.45 0.45 0 0 1 6.5 20.95A0.45 0.45 0 0 1 6.05 20.5A0.45 0.45 0 0 1 6.5 20.05A0.45 0.45 0 0 1 6.95 20.5ZM7.95 20.5A0.45 0.45 0 0 1 7.5 20.95A0.45 0.45 0 0 1 7.05 20.5A0.45 0.45 0 0 1 7.5 20.05A0.45 0.45 0 0 1 7.95 20.5ZM8.95 20.5A0.45 0.45 0 0 1 8.5 20.95A0.45 0.45 0 0 1 8.05 20.5A0.45 0.45 0 0 1 8.5 20.05A0.45 0.45 0 0 1 8.95 20.5ZM9.95 20.5A0.45 0.45 0 0 1 9.5 20.95A0.45 0.45 0 0 1 9.05 20.5A0.45 0.45 0 0 1 9.5 20.05A0.45 0.45 0 0 1 9.95 20.5ZM10.95 20.5A0.45 0.45 0 0 1 10.5 20.95A0.45 0.45 0 0 1 10.05 20.5A0.45 0.45 0 0 1 10.5 20.05A0.45 0.45 0 0 1 10.95 20.5ZM11.95 20.5A0.45 0.45 0 0 1 11.5 20.95A0.45 0.45 0 0 1 11.05 20.5A0.45 0.45 0 0 1 11.5 20.05A0.45 0.45 0 0 1 11.95 20.5ZM12.95 20.5A0.45 0.45 0 0 1 12.5 20.95A0.45 0.45 0 0 1 12.05 20.5A0.45 0.45 0 0 1 12.5 20.05A0.45 0.45 0 0 1 12.95 20.5ZM13.95 20.5A0.45 0.45 0 0 1 13.5 20.95A0.45 0.45 0 0 1 13.05 20.5A0.45 0.45 0 0 1 13.5 20.05A0.45 0.45 0 0 1 13.95 20.5ZM15.95 20.5A0.45 0.45 0 0 1 15.5 20.95A0.45 0.45 0 0 1 15.05 20.5A0.45 0.45 0 0 1 15.5 20.05A0.45 0.45 0 0 1 15.95 20.5ZM16.95 20.5A0.45 0.45 0 0 1 16.5 20.95A0.45 0.45 0 0 1 16.05 20.5A0.45 0.45 0 0 1 16.5 20.05A0.45 0.45 0 0 1 16.95 20.5ZM17.95 20.5A0.45 0.45 0 0 1 17.5 20.95A0.45 0.45 0 0 1 17.05 20.5A0.45 0.45 0 0 1 17.5 20.05A0.45 0.45 0 0 1 17.95 20.5ZM19.95 20.5A0.45 0.45 0 0 1 19.5 20.95A0.45 0.45 0 0 1 19.05 20.5A0.45 0.45 0 0 1 19.5 20.05A0.45 0.45 0 0 1 19.95 20.5ZM20.95 20.5A0.45 0.45 0 0 1 20.5 20.95A0.45 0.45 0 0 1 20.05 20.5A0.45 0.45 0 0 1 20.5 20.05A0.45 0.45 0 0 1 20.95 20.5ZM21.95 20.5A0.45 0.45 0 0 1 21.5 20.95A0.45 0.45 0 0 1 21.05 20.5A0.45 0.45 0 0 1 21.5 20.05A0.45 0.45 0 0 1 21.95 20.5ZM22.95 20.5A0.45 0.45 0 0 1 22.5 20.95A0.45 0.45 0 0 1 22.05 20.5A0.45 0.45 0 0 1 22.5 20.05A0.45 0.45 0 0 1 22.95 20.5ZM23.95 20.5A0.45 0.45 0 0 1 23.5 20.95A0.45 0.45 0 0 1 23.05 20.5A0.45 0.45 0 0 1 23.5 20.05A0.45 0.45 0 0 1 23.95 20.5ZM24.95 20.5A0.45 0.45 0 0 1 24.5 20.95A0.45 0.45 0 0 1 24.05 20.5A0.45 0.45 0 0 1 24.5 20.05A0.45 0.45 0 0 1 24.95 20.5ZM26.95 20.5A0.45 0.45 0 0 1 26.5 20.95A0.45 0.45 0 0 1 26.05 20.5A0.45 0.45 0 0 1 26.5 20.05A0.45 0.45 0 0 1 26.95 20.5ZM27.95 20.5A0.45 0.45 0 0 1 27.5 20.95A0.45 0.45 0 0 1 27.05 20.5A0.45 0.45 0 0 1 27.5 20.05A0.45 0.45 0 0 1 27.95 20.5ZM28.95 20.5A0.45 0.45 0 0 1 28.5 20.95A0.45 0.45 0 0 1 28.05 20.5A0.45 0.45 0 0 1 28.5 20.05A0.45 0.45 0 0 1 28.95 20.5ZM8.95 21.5A0.45 0.45 0 0 1 8.5 21.95A0.45 0.45 0 0 1 8.05 21.5A0.45 0.45 0 0 1 8.5 21.05A0.45 0.45 0 0 1 8.95 21.5ZM9.95 21.5A0.45 0.45 0 0 1 9.5 21.95A0.45 0.45 0 0 1 9.05 21.5A0.45 0.45 0 0 1 9.5 21.05A0.45 0.45 0 0 1 9.95 21.5ZM10.95 21.5A0.45 0.45 0 0 1 10.5 21.95A0.45 0.45 0 0 1 10.05 21.5A0.45 0.45 0 0 1 10.5 21.05A0.45 0.45 0 0 1 10.95 21.5ZM12.95 21.5A0.45 0.45 0 0 1 12.5 21.95A0.45 0.45 0 0 1 12.05 21.5A0.45 0.45 0 0 1 12.5 21.05A0.45 0.45 0 0 1 12.95 21.5ZM13.95 21.5A0.45 0.45 0 0 1 13.5 21.95A0.45 0.45 0 0 1 13.05 21.5A0.45 0.45 0 0 1 13.5 21.05A0.45 0.45 0 0 1 13.95 21.5ZM15.95 21.5A0.45 0.45 0 0 1 15.5 21.95A0.45 0.45 0 0 1 15.05 21.5A0.45 0.45 0 0 1 15.5 21.05A0.45 0.45 0 0 1 15.95 21.5ZM16.95 21.5A0.45 0.45 0 0 1 16.5 21.95A0.45 0.45 0 0 1 16.05 21.5A0.45 0.45 0 0 1 16.5 21.05A0.45 0.45 0 0 1 16.95 21.5ZM20.95 21.5A0.45 0.45 0 0 1 20.5 21.95A0.45 0.45 0 0 1 20.05 21.5A0.45 0.45 0 0 1 20.5 21.05A0.45 0.45 0 0 1 20.95 21.5ZM24.95 21.5A0.45 0.45 0 0 1 24.5 21.95A0.45 0.45 0 0 1 24.05 21.5A0.45 0.45 0 0 1 24.5 21.05A0.45 0.45 0 0 1 24.95 21.5ZM26.95 21.5A0.45 0.45 0 0 1 26.5 21.95A0.45 0.45 0 0 1 26.05 21.5A0.45 0.45 0 0 1 26.5 21.05A0.45 0.45 0 0 1 26.95 21.5ZM28.95 21.5A0.45 0.45 0 0 1 28.5 21.95A0.45 0.45 0 0 1 28.05 21.5A0.45 0.45 0 0 1 28.5 21.05A0.45 0.45 0 0 1 28.95 21.5ZM8.95 22.5A0.45 0.45 0 0 1 8.5 22.95A0.45 0.45 0 0 1 8.05 22.5A0.45 0.45 0 0 1 8.5 22.05A0.45 0.45 0 0 1 8.95 22.5ZM9.95 22.5A0.45 0.45 0 0 1 9.5 22.95A0.45 0.45 0 0 1 9.05 22.5A0.45 0.45 0 0 1 9.5 22.05A0.45 0.45 0 0 1 9.95 22.5ZM12.95 22.5A0.45 0.45 0 0 1 12.5 22.95A0.45 0.45 0 0 1 12.05 22.5A0.45 0.45 0 0 1 12.5 22.05A0.45 0.45 0 0 1 12.95 22.5ZM13.95 22.5A0.45 0.45 0 0 1 13.5 22.95A0.45 0.45 0 0 1 13.05 22.5A0.45 0.45 0 0 1 13.5 22.05A0.45 0.45 0 0 1 13.95 22.5ZM15.95 22.5A0.45 0.45 0 0 1 15.5 22.95A0.45 0.45 0 0 1 15.05 22.5A0.45 0.45 0 0 1 15.5 22.05A0.45 0.45 0 0 1 15.95 22.5ZM16.95 22.5A0.45 0.45 0 0 1 16.5 22.95A0.45 0.45 0 0 1 16.05 22.5A0.45 0.45 0 0 1 16.5 22.05A0.45 0.45 0 0 1 16.95 22.5ZM18.95 22.5A0.45 0.45 0 0 1 18.5 22.95A0.45 0.45 0 0 1 18.05 22.5A0.45 0.45 0 0 1 18.5 22.05A0.45 0.45 0 0 1 18.95 22.5ZM19.95 22.5A0.45 0.45 0 0 1 19.5 22.95A0.45 0.45 0 0 1 19.05 22.5A0.45 0.45 0 0 1 19.5 22.05A0.45 0.45 0 0 1 19.95 22.5ZM20.95 22.5A0.45 0.45 0 0 1 20.5 22.95A0.45 0.45 0 0 1 20.05 22.5A0.45 0.45 0 0 1 20.5 22.05A0.45 0.45 0 0 1 20.95 22.5ZM22.95 22.5A0.45 0.45 0 0 1 22.5 22.95A0.45 0.45 0 0 1 22.05 22.5A0.45 0.45 0 0 1 22.5 22.05A0.45 0.45 0 0 1 22.95 22.5ZM24.95 22.5A0.45 0.45 0 0 1 24.5 22.95A0.45 0.45 0 0 1 24.05 22.5A0.45 0.45 0 0 1 24.5 22.05A0.45 0.45 0 0 1 24.95 22.5ZM25.95 22.5A0.45 0.45 0 0 1 25.5 22.95A0.45 0.45 0 0 1 25.05 22.5A0.45 0.45 0 0 1 25.5 22.05A0.45 0.45 0 0 1 25.95 22.5ZM8.95 23.5A0.45 0.45 0 0 1 8.5 23.95A0.45 0.45 0 0 1 8.05 23.5A0.45 0.45 0 0 1 8.5 23.05A0.45 0.45 0 0 1 8.95 23.5ZM12.95 23.5A0.45 0.45 0 0 1 12.5 23.95A0.45 0.45 0 0 1 12.05 23.5A0.45 0.45 0 0 1 12.5 23.05A0.45 0.45 0 0 1 12.95 23.5ZM13.95 23.5A0.45 0.45 0 0 1 13.5 23.95A0.45 0.45 0 0 1 13.05 23.5A0.45 0.45 0 0 1 13.5 23.05A0.45 0.45 0 0 1 13.95 23.5ZM15.95 23.5A0.45 0.45 0 0 1 15.5 23.95A0.45 0.45 0 0 1 15.05 23.5A0.45 0.45 0 0 1 15.5 23.05A0.45 0.45 0 0 1 15.95 23.5ZM16.95 23.5A0.45 0.45 0 0 1 16.5 23.95A0.45 0.45 0 0 1 16.05 23.5A0.45 0.45 0 0 1 16.5 23.05A0.45 0.45 0 0 1 16.95 23.5ZM17.95 23.5A0.45 0.45 0 0 1 17.5 23.95A0.45 0.45 0 0 1 17.05 23.5A0.45 0.45 0 0 1 17.5 23.05A0.45 0.45 0 0 1 17.95 23.5ZM19.95 23.5A0.45 0.45 0 0 1 19.5 23.95A0.45 0.45 0 0 1 19.05 23.5A0.45 0.45 0 0 1 19.5 23.05A0.45 0.45 0 0 1 19.95 23.5ZM20.95 23.5A0.45 0.45 0 0 1 20.5 23.95A0.45 0.45 0 0 1 20.05 23.5A0.45 0.45 0 0 1 20.5 23.05A0.45 0.45 0 0 1 20.95 23.5ZM24.95 23.5A0.45 0.45 0 0 1 24.5 23.95A0.45 0.45 0 0 1 24.05 23.5A0.45 0.45 0 0 1 24.5 23.05A0.45 0.45 0 0 1 24.95 23.5ZM26.95 23.5A0.45 0.45 0 0 1 26.5 23.95A0.45 0.45 0 0 1 26.05 23.5A0.45 0.45 0 0 1 26.5 23.05A0.45 0.45 0 0 1 26.95 23.5ZM8.95 24.5A0.45 0.45 0 0 1 8.5 24.95A0.45 0.45 0 0 1 8.05 24.5A0.45 0.45 0 0 1 8.5 24.05A0.45 0.45 0 0 1 8.95 24.5ZM13.95 24.5A0.45 0.45 0 0 1 13.5 24.95A0.45 0.45 0 0 1 13.05 24.5A0.45 0.45 0 0 1 13.5 24.05A0.45 0.45 0 0 1 13.95 24.5ZM15.95 24.5A0.45 0.45 0 0 1 15.5 24.95A0.45 0.45 0 0 1 15.05 24.5A0.45 0.45 0 0 1 15.5 24.05A0.45 0.45 0 0 1 15.95 24.5ZM16.95 24.5A0.45 0.45 0 0 1 16.5 24.95A0.45 0.45 0 0 1 16.05 24.5A0.45 0.45 0 0 1 16.5 24.05A0.45 0.45 0 0 1 16.95 24.5ZM20.95 24.5A0.45 0.45 0 0 1 20.5 24.95A0.45 0.45 0 0 1 20.05 24.5A0.45 0.45 0 0 1 20.5 24.05A0.45 0.45 0 0 1 20.95 24.5ZM21.95 24.5A0.45 0.45 0 0 1 21.5 24.95A0.45 0.45 0 0 1 21.05 24.5A0.45 0.45 0 0 1 21.5 24.05A0.45 0.45 0 0 1 21.95 24.5ZM22.95 24.5A0.45 0.45 0 0 1 22.5 24.95A0.45 0.45 0 0 1 22.05 24.5A0.45 0.45 0 0 1 22.5 24.05A0.45 0.45 0 0 1 22.95 24.5ZM23.95 24.5A0.45 0.45 0 0 1 23.5 24.95A0.45 0.45 0 0 1 23.05 24.5A0.45 0.45 0 0 1 23.5 24.05A0.45 0.45 0 0 1 23.95 24.5ZM24.95 24.5A0.45 0.45 0 0 1 24.5 24.95A0.45 0.45 0 0 1 24.05 24.5A0.45 0.45 0 0 1 24.5 24.05A0.45 0.45 0 0 1 24.95 24.5ZM25.95 24.5A0.45 0.45 0 0 1 25.5 24.95A0.45 0.45 0 0 1 25.05 24.5A0.45 0.45 0 0 1 25.5 24.05A0.45 0.45 0 0 1 25.95 24.5ZM27.95 24.5A0.45 0.45 0 0 1 27.5 24.95A0.45 0.45 0 0 1 27.05 24.5A0.45 0.45 0 0 1 27.5 24.05A0.45 0.45 0 0 1 27.95 24.5ZM8.95 25.5A0.45 0.45 0 0 1 8.5 25.95A0.45 0.45 0 0 1 8.05 25.5A0.45 0.45 0 0 1 8.5 25.05A0.45 0.45 0 0 1 8.95 25.5ZM9.95 25.5A0.45 0.45 0 0 1 9.5 25.95A0.45 0.45 0 0 1 9.05 25.5A0.45 0.45 0 0 1 9.5 25.05A0.45 0.45 0 0 1 9.95 25.5ZM10.95 25.5A0.45 0.45 0 0 1 10.5 25.95A0.45 0.45 0 0 1 10.05 25.5A0.45 0.45 0 0 1 10.5 25.05A0.45 0.45 0 0 1 10.95 25.5ZM11.95 25.5A0.45 0.45 0 0 1 11.5 25.95A0.45 0.45 0 0 1 11.05 25.5A0.45 0.45 0 0 1 11.5 25.05A0.45 0.45 0 0 1 11.95 25.5ZM12.95 25.5A0.45 0.45 0 0 1 12.5 25.95A0.45 0.45 0 0 1 12.05 25.5A0.45 0.45 0 0 1 12.5 25.05A0.45 0.45 0 0 1 12.95 25.5ZM13.95 25.5A0.45 0.45 0 0 1 13.5 25.95A0.45 0.45 0 0 1 13.05 25.5A0.45 0.45 0 0 1 13.5 25.05A0.45 0.45 0 0 1 13.95 25.5ZM14.95 25.5A0.45 0.45 0 0 1 14.5 25.95A0.45 0.45 0 0 1 14.05 25.5A0.45 0.45 0 0 1 14.5 25.05A0.45 0.45 0 0 1 14.95 25.5ZM19.95 25.5A0.45 0.45 0 0 1 19.5 25.95A0.45 0.45 0 0 1 19.05 25.5A0.45 0.45 0 0 1 19.5 25.05A0.45 0.45 0 0 1 19.95 25.5ZM21.95 25.5A0.45 0.45 0 0 1 21.5 25.95A0.45 0.45 0 0 1 21.05 25.5A0.45 0.45 0 0 1 21.5 25.05A0.45 0.45 0 0 1 21.95 25.5ZM23.95 25.5A0.45 0.45 0 0 1 23.5 25.95A0.45 0.45 0 0 1 23.05 25.5A0.45 0.45 0 0 1 23.5 25.05A0.45 0.45 0 0 1 23.95 25.5ZM25.95 25.5A0.45 0.45 0 0 1 25.5 25.95A0.45 0.45 0 0 1 25.05 25.5A0.45 0.45 0 0 1 25.5 25.05A0.45 0.45 0 0 1 25.95 25.5ZM26.95 25.5A0.45 0.45 0 0 1 26.5 25.95A0.45 0.45 0 0 1 26.05 25.5A0.45 0.45 0 0 1 26.5 25.05A0.45 0.45 0 0 1 26.95 25.5ZM27.95 25.5A0.45 0.45 0 0 1 27.5 25.95A0.45 0.45 0 0 1 27.05 25.5A0.45 0.45 0 0 1 27.5 25.05A0.45 0.45 0 0 1 27.95 25.5ZM9.95 26.5A0.45 0.45 0 0 1 9.5 26.95A0.45 0.45 0 0 1 9.05 26.5A0.45 0.45 0 0 1 9.5 26.05A0.45 0.45 0 0 1 9.95 26.5ZM17.95 26.5A0.45 0.45 0 0 1 17.5 26.95A0.45 0.45 0 0 1 17.05 26.5A0.45 0.45 0 0 1 17.5 26.05A0.45 0.45 0 0 1 17.95 26.5ZM19.95 26.5A0.45 0.45 0 0 1 19.5 26.95A0.45 0.45 0 0 1 19.05 26.5A0.45 0.45 0 0 1 19.5 26.05A0.45 0.45 0 0 1 19.95 26.5ZM21.95 26.5A0.45 0.45 0 0 1 21.5 26.95A0.45 0.45 0 0 1 21.05 26.5A0.45 0.45 0 0 1 21.5 26.05A0.45 0.45 0 0 1 21.95 26.5ZM22.95 26.5A0.45 0.45 0 0 1 22.5 26.95A0.45 0.45 0 0 1 22.05 26.5A0.45 0.45 0 0 1 22.5 26.05A0.45 0.45 0 0 1 22.95 26.5ZM23.95 26.5A0.45 0.45 0 0 1 23.5 26.95A0.45 0.45 0 0 1 23.05 26.5A0.45 0.45 0 0 1 23.5 26.05A0.45 0.45 0 0 1 23.95 26.5ZM25.95 26.5A0.45 0.45 0 0 1 25.5 26.95A0.45 0.45 0 0 1 25.05 26.5A0.45 0.45 0 0 1 25.5 26.05A0.45 0.45 0 0 1 25.95 26.5ZM26.95 26.5A0.45 0.45 0 0 1 26.5 26.95A0.45 0.45 0 0 1 26.05 26.5A0.45 0.45 0 0 1 26.5 26.05A0.45 0.45 0 0 1 26.95 26.5ZM27.95 26.5A0.45 0.45 0 0 1 27.5 26.95A0.45 0.45 0 0 1 27.05 26.5A0.45 0.45 0 0 1 27.5 26.05A0.45 0.45 0 0 1 27.95 26.5ZM28.95 26.5A0.45 0.45 0 0 1 28.5 26.95A0.45 0.45 0 0 1 28.05 26.5A0.45 0.45 0 0 1 28.5 26.05A0.45 0.45 0 0 1 28.95 26.5ZM9.95 27.5A0.45 0.45 0 0 1 9.5 27.95A0.45 0.45 0 0 1 9.05 27.5A0.45 0.45 0 0 1 9.5 27.05A0.45 0.45 0 0 1 9.95 27.5ZM13.95 27.5A0.45 0.45 0 0 1 13.5 27.95A0.45 0.45 0 0 1 13.05 27.5A0.45 0.45 0 0 1 13.5 27.05A0.45 0.45 0 0 1 13.95 27.5ZM15.95 27.5A0.45 0.45 0 0 1 15.5 27.95A0.45 0.45 0 0 1 15.05 27.5A0.45 0.45 0 0 1 15.5 27.05A0.45 0.45 0 0 1 15.95 27.5ZM16.95 27.5A0.45 0.45 0 0 1 16.5 27.95A0.45 0.45 0 0 1 16.05 27.5A0.45 0.45 0 0 1 16.5 27.05A0.45 0.45 0 0 1 16.95 27.5ZM18.95 27.5A0.45 0.45 0 0 1 18.5 27.95A0.45 0.45 0 0 1 18.05 27.5A0.45 0.45 0 0 1 18.5 27.05A0.45 0.45 0 0 1 18.95 27.5ZM19.95 27.5A0.45 0.45 0 0 1 19.5 27.95A0.45 0.45 0 0 1 19.05 27.5A0.45 0.45 0 0 1 19.5 27.05A0.45 0.45 0 0 1 19.95 27.5ZM20.95 27.5A0.45 0.45 0 0 1 20.5 27.95A0.45 0.45 0 0 1 20.05 27.5A0.45 0.45 0 0 1 20.5 27.05A0.45 0.45 0 0 1 20.95 27.5ZM21.95 27.5A0.45 0.45 0 0 1 21.5 27.95A0.45 0.45 0 0 1 21.05 27.5A0.45 0.45 0 0 1 21.5 27.05A0.45 0.45 0 0 1 21.95 27.5ZM22.95 27.5A0.45 0.45 0 0 1 22.5 27.95A0.45 0.45 0 0 1 22.05 27.5A0.45 0.45 0 0 1 22.5 27.05A0.45 0.45 0 0 1 22.95 27.5ZM25.95 27.5A0.45 0.45 0 0 1 25.5 27.95A0.45 0.45 0 0 1 25.05 27.5A0.45 0.45 0 0 1 25.5 27.05A0.45 0.45 0 0 1 25.95 27.5ZM27.95 27.5A0.45 0.45 0 0 1 27.5 27.95A0.45 0.45 0 0 1 27.05 27.5A0.45 0.45 0 0 1 27.5 27.05A0.45 0.45 0 0 1 27.95 27.5ZM8.95 28.5A0.45 0.45 0 0 1 8.5 28.95A0.45 0.45 0 0 1 8.05 28.5A0.45 0.45 0 0 1 8.5 28.05A0.45 0.45 0 0 1 8.95 28.5ZM9.95 28.5A0.45 0.45 0 0 1 9.5 28.95A0.45 0.45 0 0 1 9.05 28.5A0.45 0.45 0 0 1 9.5 28.05A0.45 0.45 0 0 1 9.95 28.5ZM13.95 28.5A0.45 0.45 0 0 1 13.5 28.95A0.45 0.45 0 0 1 13.05 28.5A0.45 0.45 0 0 1 13.5 28.05A0.45 0.45 0 0 1 13.95 28.5ZM14.95 28.5A0.45 0.45 0 0 1 14.5 28.95A0.45 0.45 0 0 1 14.05 28.5A0.45 0.45 0 0 1 14.5 28.05A0.45 0.45 0 0 1 14.95 28.5ZM15.95 28.5A0.45 0.45 0 0 1 15.5 28.95A0.45 0.45 0 0 1 15.05 28.5A0.45 0.45 0 0 1 15.5 28.05A0.45 0.45 0 0 1 15.95 28.5ZM16.95 28.5A0.45 0.45 0 0 1 16.5 28.95A0.45 0.45 0 0 1 16.05 28.5A0.45 0.45 0 0 1 16.5 28.05A0.45 0.45 0 0 1 16.95 28.5ZM17.95 28.5A0.45 0.45 0 0 1 17.5 28.95A0.45 0.45 0 0 1 17.05 28.5A0.45 0.45 0 0 1 17.5 28.05A0.45 0.45 0 0 1 17.95 28.5ZM18.95 28.5A0.45 0.45 0 0 1 18.5 28.95A0.45 0.45 0 0 1 18.05 28.5A0.45 0.45 0 0 1 18.5 28.05A0.45 0.45 0 0 1 18.95 28.5ZM19.95 28.5A0.45 0.45 0 0 1 19.5 28.95A0.45 0.45 0 0 1 19.05 28.5A0.45 0.45 0 0 1 19.5 28.05A0.45 0.45 0 0 1 19.95 28.5ZM20.95 28.5A0.45 0.45 0 0 1 20.5 28.95A0.45 0.45 0 0 1 20.05 28.5A0.45 0.45 0 0 1 20.5 28.05A0.45 0.45 0 0 1 20.95 28.5ZM21.95 28.5A0.45 0.45 0 0 1 21.5 28.95A0.45 0.45 0 0 1 21.05 28.5A0.45 0.45 0 0 1 21.5 28.05A0.45 0.45 0 0 1 21.95 28.5ZM22.95 28.5A0.45 0.45 0 0 1 22.5 28.95A0.45 0.45 0 0 1 22.05 28.5A0.45 0.45 0 0 1 22.5 28.05A0.45 0.45 0 0 1 22.95 28.5ZM23.95 28.5A0.45 0.45 0 0 1 23.5 28.95A0.45 0.45 0 0 1 23.05 28.5A0.45 0.45 0 0 1 23.5 28.05A0.45 0.45 0 0 1 23.95 28.5ZM24.95 28.5A0.45 0.45 0 0 1 24.5 28.95A0.45 0.45 0 0 1 24.05 28.5A0.45 0.45 0 0 1 24.5 28.05A0.45 0.45 0 0 1 24.95 28.5ZM25.95 28.5A0.45 0.45 0 0 1 25.5 28.95A0.45 0.45 0 0 1 25.05 28.5A0.45 0.45 0 0 1 25.5 28.05A0.45 0.45 0 0 1 25.95 28.5Z" fill="#ffffff"/></g></g></svg>
